<svg xmlns="http://www.w3.org/2000/svg" width="512" height="512" viewBox="0 0 512 512" version="1.1">
	<path d="M 250.455 2.455 C 248.354 4.555, 248 5.843, 248 11.386 L 248 17.862 232.250 18.181 C 214.040 18.550, 210.628 19.665, 205.500 26.925 C 202.529 31.131, 202.500 31.303, 202.500 44.493 L 202.500 57.814 205.558 61.592 C 211.219 68.587, 213.130 69.463, 223.571 69.847 L 233 70.193 233 80.577 C 233 92.408, 234.316 90.987, 221.500 92.991 C 197.291 96.775, 170.083 107.249, 147.593 121.441 C 142.694 124.533, 138.397 126.935, 138.044 126.781 C 136.843 126.255, 126 114.021, 126.059 113.259 C 126.092 112.841, 133.533 105.975, 142.596 98 C 151.659 90.025, 160.067 81.925, 161.281 80 C 164.572 74.782, 164.389 65.691, 160.889 60.427 C 155.667 52.573, 142.810 40.656, 135.994 37.352 C 116.267 27.788, 96.819 30.884, 78.945 46.432 L 71.500 52.908 67.556 48.318 C 58.123 37.340, 48.066 37.335, 36.329 48.302 C 29.270 54.899, 27 58.816, 27 64.403 C 27 69.331, 28.542 72.803, 33.177 78.314 L 37.227 83.128 28.859 91.314 C 16.596 103.310, 11.973 113.511, 12.024 128.460 C 12.055 137.274, 13.310 142.794, 17.030 150.472 C 20.652 157.948, 32.671 171.736, 38.193 174.750 C 43.301 177.538, 49.775 177.671, 54.790 175.091 C 56.830 174.041, 65.830 166.616, 74.788 158.591 C 83.747 150.566, 91.238 144, 91.435 144 C 91.633 144, 94.578 147.140, 97.980 150.977 L 104.166 157.955 98.231 165.227 C 37.708 239.394, 37.305 346.134, 97.265 420.669 L 103.264 428.127 100.882 429.743 C 96.160 432.948, 90.816 439.594, 87.423 446.481 C 72.591 476.586, 94.744 512, 128.408 512 C 147.163 512, 164.493 500.374, 170.906 483.489 L 172.500 479.294 182.500 483.250 C 203.093 491.396, 225.026 495.866, 248.548 496.708 C 278.147 497.768, 306.843 492.786, 332.802 482.082 L 339.877 479.164 340.507 482.033 C 341.410 486.143, 347.973 495.881, 352.706 500.135 C 371.770 517.266, 399.741 515.883, 417.467 496.932 C 435.123 478.057, 432.371 446.159, 411.719 430.299 L 408.937 428.163 416.801 418.071 C 439.084 389.472, 453.539 354.575, 457.987 318.639 C 459.204 308.809, 458.354 306.030, 453.447 303.794 C 451.110 302.729, 451 302.268, 451 293.500 C 451 284.732, 451.110 284.271, 453.447 283.206 C 454.793 282.593, 456.623 280.979, 457.513 279.620 C 459.005 277.343, 459.005 276.230, 457.512 265.431 C 452.481 229.054, 437.602 194.603, 414.646 166.179 L 407.926 157.857 412.938 152.072 C 415.694 148.890, 418.595 145.751, 419.384 145.097 C 420.558 144.122, 423.780 146.559, 437.159 158.544 C 446.147 166.594, 455.170 174.041, 457.210 175.091 C 461.985 177.548, 468.550 177.524, 473.439 175.031 C 475.562 173.949, 479.595 170.511, 482.400 167.392 C 495.393 152.943, 500.019 142.876, 499.976 129.145 C 499.925 113.285, 495.590 103.489, 483.286 91.432 L 474.791 83.107 478.832 78.303 C 483.458 72.803, 485 69.329, 485 64.403 C 485 58.816, 482.730 54.899, 475.671 48.302 C 469.184 42.241, 464.651 39.991, 459 40.028 C 454.680 40.056, 448.537 43.555, 444.444 48.318 L 440.500 52.908 433.055 46.432 C 421.579 36.449, 410.812 32.024, 398 32.024 C 383.506 32.024, 372.918 36.980, 360.728 49.472 C 351.189 59.246, 348 64.515, 348 70.500 C 348 77.829, 350.958 81.649, 368.915 97.512 C 378.247 105.755, 385.908 112.841, 385.941 113.259 C 386.004 114.070, 375.108 126.285, 373.845 126.818 C 373.430 126.993, 370.395 125.305, 367.099 123.067 C 346.788 109.274, 315.118 96.839, 290.500 92.991 C 277.680 90.987, 279 92.423, 279 80.481 L 279 70 286.935 70 C 295.945 70, 299.287 69.019, 303.342 65.186 C 309.102 59.741, 310.197 56.005, 309.831 43.053 C 309.523 32.168, 309.302 31.046, 306.686 27.096 C 304.739 24.158, 302.272 22.104, 298.686 20.434 C 293.951 18.229, 292.227 18.019, 278.863 18.010 L 264.226 18 263.823 10.880 C 263.486 4.914, 263.044 3.454, 261.100 1.880 C 257.850 -0.752, 253.422 -0.513, 250.455 2.455 M 219.036 34.957 C 216.764 36.394, 216.304 49.288, 218.410 52.503 L 220.046 55 255.966 55 L 291.887 55 293.443 52.777 C 295.216 50.247, 295.561 40.607, 294.025 36.565 L 293.050 34 256.775 34.015 C 236.276 34.024, 219.863 34.433, 219.036 34.957 M 46.703 59.792 C 44.666 61.878, 43 64.093, 43 64.715 C 43 66.339, 47.960 72.007, 49.339 71.960 C 49.978 71.938, 52.608 69.980, 55.184 67.608 L 59.868 63.295 56.861 59.648 C 55.207 57.641, 53.078 56, 52.130 56 C 51.182 56, 48.740 57.706, 46.703 59.792 M 455.293 59.616 L 452.392 63.232 457.446 68.062 L 462.500 72.891 465.750 69.749 C 467.538 68.021, 469 65.887, 469 65.007 C 469 62.943, 461.912 56, 459.805 56 C 458.919 56, 456.889 57.627, 455.293 59.616 M 249 80.500 L 249 90 256 90 L 263 90 263 80.500 L 263 71 256 71 L 249 71 249 80.500 M 108.324 128.793 L 103.147 133.500 108.987 139.883 L 114.826 146.265 119.913 141.976 C 122.711 139.617, 124.991 137.195, 124.980 136.593 C 124.964 135.723, 114.288 123.880, 113.665 124.043 C 113.574 124.067, 111.171 126.205, 108.324 128.793 M 392.250 130.079 C 389.363 133.325, 387 136.393, 387 136.897 C 387 137.401, 389.298 139.738, 392.107 142.089 L 397.213 146.365 403.039 139.932 L 408.865 133.500 403.682 128.793 C 400.832 126.205, 398.275 124.107, 398 124.132 C 397.725 124.157, 395.137 126.833, 392.250 130.079 M 237 136.715 C 224.166 138.164, 198.587 145.657, 187.752 151.141 L 184.005 153.038 187.002 158.350 C 188.651 161.271, 190 164.763, 190 166.108 C 190 171.892, 183.286 175.728, 178.571 172.638 C 177.279 171.792, 174.915 168.835, 173.317 166.068 L 170.412 161.035 166.456 163.685 C 159.577 168.292, 147.533 178.675, 141.135 185.515 C 134.178 192.952, 124 206.140, 124 207.718 C 124 208.290, 125.370 209.325, 127.043 210.018 C 134.893 213.269, 138.232 220.140, 134.250 224.847 C 131.261 228.379, 128.057 228.414, 121.632 224.985 C 118.422 223.272, 115.671 222.012, 115.518 222.185 C 114.430 223.418, 109.798 233.753, 107.645 239.752 C 103.114 252.373, 100.323 265.375, 98.630 281.750 L 98.190 286 104.513 286 C 112.468 286, 113.916 286.571, 115.496 290.329 C 117.005 293.916, 115.806 298.499, 112.961 300.021 C 111.955 300.559, 108.168 301, 104.547 301 C 98.248 301, 97.982 301.098, 98.424 303.250 C 98.679 304.488, 99.164 308.754, 99.502 312.732 C 100.617 325.836, 106.749 347.492, 112.744 359.500 C 114.117 362.250, 115.368 364.644, 115.525 364.821 C 115.681 364.998, 118.561 363.710, 121.926 361.959 C 127.465 359.076, 128.328 358.893, 131.060 360.025 C 134.591 361.487, 136 363.718, 136 367.845 C 136 370.973, 133.264 373.859, 127.126 377.203 C 125.407 378.140, 124.004 379.265, 124.010 379.703 C 124.034 381.690, 135.305 395.423, 144.443 404.599 C 154.681 414.879, 170.112 427.116, 170.710 425.430 C 170.892 424.918, 172.391 422.347, 174.043 419.717 C 177.568 414.101, 181.034 412.357, 185.222 414.092 C 190.844 416.421, 191.378 420.896, 186.968 428.711 L 183.935 434.084 191.307 437.444 C 206.077 444.175, 232.909 451, 244.599 451 L 248 451 248 445.547 C 248 438.740, 249.445 435.473, 253.130 433.946 C 255.347 433.028, 256.653 433.028, 258.870 433.946 C 262.574 435.481, 264 438.743, 264 445.685 L 264 451.276 271.750 450.580 C 287.228 449.192, 306.250 444.092, 320.786 437.434 L 328.072 434.097 325.036 428.718 C 320.593 420.844, 321.150 416.423, 326.887 414.047 C 330.935 412.370, 334.733 414.277, 337.745 419.500 C 339.014 421.700, 340.449 424.158, 340.935 424.963 C 342.209 427.074, 358.289 414.588, 369.794 402.554 C 378.373 393.581, 388.038 381.251, 387.967 379.373 C 387.948 378.893, 385.593 377.150, 382.734 375.500 C 377.112 372.256, 375.263 369.072, 376.392 364.575 C 376.847 362.762, 378.197 361.398, 380.480 360.444 C 384.201 358.889, 385.623 359.185, 391.230 362.677 C 393.282 363.955, 395.386 365, 395.907 365 C 396.427 365, 398.038 362.413, 399.486 359.250 C 405.821 345.415, 411.079 326.877, 412.463 313.500 C 412.805 310.200, 413.311 306.038, 413.587 304.250 L 414.091 301 407.045 301 C 398.673 301, 396 299.185, 396 293.500 C 396 287.815, 398.673 286, 407.045 286 L 414.091 286 413.587 282.750 C 413.311 280.962, 412.810 276.800, 412.475 273.500 C 411.151 260.447, 404.938 238.812, 399.266 227.500 C 397.888 224.750, 396.632 222.356, 396.475 222.179 C 396.319 222.002, 393.410 223.305, 390.011 225.074 C 383.975 228.216, 383.754 228.253, 380.442 226.674 C 373.578 223.401, 374.668 216.234, 382.744 211.537 C 385.615 209.867, 387.969 208.050, 387.973 207.500 C 387.990 205.362, 377.141 192.026, 367.557 182.401 C 358.780 173.588, 342.375 160.175, 341.573 161.157 C 341.419 161.345, 340.042 163.666, 338.514 166.314 C 336.986 168.961, 334.688 171.813, 333.408 172.652 C 328.731 175.717, 322 171.880, 322 166.149 C 322 164.826, 323.388 161.318, 325.084 158.353 L 328.168 152.963 320.744 149.580 C 306.035 142.876, 287.927 138.072, 271.250 136.448 L 264 135.742 264 141.420 C 264 148.141, 261.919 152.731, 258.482 153.594 C 251.836 155.262, 248 150.855, 248 141.550 L 248 136 244.250 136.160 C 242.188 136.248, 238.925 136.498, 237 136.715 M 250.455 165.455 L 248 167.909 248 211.821 L 248 255.732 241.998 257.920 C 237.938 259.401, 234.094 261.870, 230.115 265.554 L 224.233 271 192.731 271 L 161.228 271 155.880 273.794 C 140.448 281.856, 139.954 303.716, 154.999 312.750 L 160.412 316 192.503 316 L 224.594 316 228.547 320.116 C 230.721 322.380, 234.001 324.877, 235.835 325.665 C 238.862 326.965, 239.472 326.919, 242.445 325.165 C 245.276 323.495, 246.418 323.370, 250.860 324.249 C 254.342 324.937, 257.658 324.937, 261.140 324.249 C 265.582 323.370, 266.724 323.495, 269.555 325.165 C 272.512 326.910, 273.155 326.961, 276.165 325.692 C 280.578 323.832, 288.598 315.112, 291.318 309.217 C 293.114 305.323, 293.495 302.668, 293.497 294 C 293.500 284.542, 293.215 282.882, 290.626 277.278 C 287.172 269.801, 279.355 262.004, 271.772 258.474 C 268.872 257.124, 265.938 256.015, 265.250 256.010 C 264.269 256.002, 264 246.519, 264 211.955 L 264 167.909 261.545 165.455 C 259.998 163.907, 257.948 163, 256 163 C 254.052 163, 252.002 163.907, 250.455 165.455" stroke="none" fill="black" fill-rule="evenodd"/>
</svg>